<svg width="386" height="76" viewBox="0 0 386 76" fill="none" xmlns="http://www.w3.org/2000/svg">
<path fill-rule="evenodd" clip-rule="evenodd" d="M87.4683 75.7498L43.7342 0L0 75.7498L87.4683 75.7498ZM22.1937 38.0633L43.7344 75.3729L65.2751 38.0633L22.1937 38.0633Z" fill="url(#paint0_radial)"/>
<path d="M107.27 53.3218V23.4781H112.863L126.679 33.1617H126.888L140.703 23.4781H146.296V53.3218H139.618V31.826L130.143 38.1704V53.3218H123.465V38.1704L113.948 31.826V53.3218H107.27Z" fill="#0E0E0E"/>
<path d="M162.541 53.5305C158.812 53.5305 155.905 52.6122 153.818 50.7757C151.731 48.9113 150.687 46.1844 150.687 42.5948C150.687 38.9774 151.731 36.2504 153.818 34.4139C155.905 32.5495 158.812 31.6173 162.541 31.6173H172.976C175.425 31.6173 177.289 32.2017 178.569 33.3704C179.877 34.5113 180.531 36.153 180.531 38.2956C180.531 42.6643 178.013 44.8487 172.976 44.8487H157.199C157.783 47.4365 159.564 48.7305 162.541 48.7305H179.446V53.5305H162.541ZM162.541 36.4173C159.675 36.4173 157.908 37.6278 157.24 40.0487H172.684C173.24 40.0487 173.672 39.8817 173.978 39.5478C174.312 39.2139 174.479 38.7548 174.479 38.1704C174.479 37.0017 173.88 36.4173 172.684 36.4173H162.541Z" fill="#0E0E0E"/>
<path d="M196.295 53.3218C193.874 53.3218 192.093 52.7235 190.953 51.527C189.812 50.3026 189.241 48.7026 189.241 46.727V36.626H183.022V31.826H189.241V25.2312H195.294V31.826H204.226V36.626H195.294V45.9757C195.294 47.6731 196.128 48.5218 197.798 48.5218H205.394V53.3218H196.295Z" fill="#0E0E0E"/>
<path d="M214.224 53.3218C211.97 53.3218 210.245 52.7514 209.049 51.6105C207.852 50.4696 207.254 48.8418 207.254 46.727C207.254 44.64 207.852 43.0261 209.049 41.8852C210.245 40.7443 211.97 40.1739 214.224 40.1739H230.252V39.1721C230.252 37.4747 229.417 36.626 227.748 36.626H210.05V31.826H229.334C231.866 31.826 233.661 32.4104 234.718 33.5791C235.776 34.72 236.304 36.3339 236.304 38.4208V53.3218H214.224ZM215.309 48.5218H230.252V44.9739H215.309C214.781 44.9739 214.363 45.1409 214.057 45.4748C213.779 45.7809 213.64 46.1983 213.64 46.727C213.64 47.2557 213.779 47.687 214.057 48.0209C214.363 48.3548 214.781 48.5218 215.309 48.5218Z" fill="#0E0E0E"/>
<path d="M241.537 53.3218V23.4781H266.539C269.628 23.4781 272.021 24.2573 273.718 25.8156C275.443 27.3738 276.306 29.7391 276.306 32.9112C276.306 36.0834 275.443 38.4487 273.718 40.0069C272.021 41.5652 269.628 42.3443 266.539 42.3443H248.215V53.3218H241.537ZM265.746 28.9043H248.215V36.8765L265.746 36.9182C266.97 36.9182 267.902 36.6121 268.542 36C269.21 35.3878 269.544 34.3582 269.544 32.9112C269.544 31.4365 269.21 30.4069 268.542 29.8225C267.902 29.2104 266.97 28.9043 265.746 28.9043Z" fill="#0E0E0E"/>
<path d="M279.838 53.3218V31.826H296.283C298.704 31.826 300.485 32.4382 301.626 33.6626C302.767 34.8591 303.337 36.4452 303.337 38.4208V42.887H297.201V39.1721C297.201 37.5026 296.367 36.6678 294.697 36.6678H285.974V53.3218H279.838Z" fill="#0E0E0E"/>
<path d="M306.659 53.3218V31.826H312.711V53.3218H306.659ZM306.617 28.2782V23.5616H312.753V28.2782H306.617Z" fill="#0E0E0E"/>
<path d="M317.297 53.3218V31.826H345.137C347.586 31.826 349.381 32.4382 350.522 33.6626C351.663 34.8591 352.233 36.4452 352.233 38.4208V53.3218H346.181V39.1721C346.181 37.4747 345.318 36.626 343.593 36.626H337.791V53.3218H331.739V36.626H323.35V53.3218H317.297Z" fill="#0E0E0E"/>
<path d="M367.651 53.5305C363.922 53.5305 361.014 52.6122 358.927 50.7757C356.84 48.9113 355.797 46.1844 355.797 42.5948C355.797 38.9774 356.84 36.2504 358.927 34.4139C361.014 32.5495 363.922 31.6173 367.651 31.6173H378.086C380.535 31.6173 382.399 32.2017 383.679 33.3704C384.987 34.5113 385.641 36.153 385.641 38.2956C385.641 42.6643 383.122 44.8487 378.086 44.8487H362.308C362.893 47.4365 364.674 48.7305 367.651 48.7305H384.555V53.5305H367.651ZM367.651 36.4173C364.785 36.4173 363.018 37.6278 362.35 40.0487H377.794C378.35 40.0487 378.781 39.8817 379.088 39.5478C379.421 39.2139 379.588 38.7548 379.588 38.1704C379.588 37.0017 378.99 36.4173 377.794 36.4173H367.651Z" fill="#0E0E0E"/>
<defs>
<radialGradient id="paint0_radial" cx="0" cy="0" r="1" gradientUnits="userSpaceOnUse" gradientTransform="translate(43.7342 50.4999) rotate(90) scale(60.2984 48.4084)">
<stop offset="0.421875" stop-color="#13EEC7"/>
<stop offset="0.614583" stop-color="#6AFF0F"/>
<stop offset="1" stop-color="#FAFF05"/>
</radialGradient>
</defs>
</svg>
