<?xml version="1.0" encoding="UTF-8" standalone="no"?>
<svg
   xmlns:dc="http://purl.org/dc/elements/1.1/"
   xmlns:cc="http://creativecommons.org/ns#"
   xmlns:rdf="http://www.w3.org/1999/02/22-rdf-syntax-ns#"
   xmlns:svg="http://www.w3.org/2000/svg"
   xmlns="http://www.w3.org/2000/svg"
   id="svg36"
   xml:space="preserve"
   viewBox="0 0 1024 768"
   y="0px"
   x="0px"
   version="1.1"><metadata
     id="metadata42"><rdf:RDF><cc:Work
         rdf:about=""><dc:format>image/svg+xml</dc:format><dc:type
           rdf:resource="http://purl.org/dc/dcmitype/StillImage" /></cc:Work></rdf:RDF></metadata><defs
     id="defs40" /><g
     transform="translate(5e-6)"
     id="logo-group"><path
       stroke-miterlimit="2"
       d="m 223.04,419.3 v 1.1558 h -11.476 v 8.7789 h 9.9347 v 1.2109 l -9.9347,-0.0275 v 8.3936 h 11.476 v 1.1558 h -12.632 v -20.668 z"
       style="font-variant-ligatures:none;fill:#9a4bb1;stroke-width:0;stroke-miterlimit:2"
       id="path234605" /><path
       stroke-miterlimit="2"
       d="m 249.73,439.97 h -1.1834 l -7.2928,-9.6045 -7.2378,9.6045 h -1.1834 l 7.6506,-10.32 -7.6506,-10.348 h 1.1834 l 7.2378,9.632 7.2928,-9.632 h 1.2109 l -7.6506,10.348 z"
       style="font-variant-ligatures:none;fill:#9d4db1;stroke-width:0;stroke-miterlimit:2"
       id="path234607" /><path
       stroke-miterlimit="2"
       d="m 259.54,419.3 h 11.146 q 1.376,0.0826 2.4768,0.688 0.46784,0.24768 0.90816,0.66048 0.46784,0.4128 0.79808,1.0182 0.35776,0.57792 0.57792,1.376 0.22016,0.79808 0.22016,1.8438 0,1.0458 -0.22016,1.8438 -0.22016,0.77056 -0.57792,1.376 -0.33024,0.57792 -0.79808,0.99072 -0.44032,0.38528 -0.90816,0.63296 -1.1008,0.60544 -2.4768,0.688 h -9.9898 v 9.5494 h -1.1558 z m 1.1558,9.9622 h 9.6045 q 1.1834,-0.055 2.0915,-0.5504 0.38528,-0.19264 0.77056,-0.49536 0.38528,-0.33024 0.68801,-0.79808 0.30271,-0.46784 0.46783,-1.0733 0.19264,-0.63296 0.19264,-1.4586 0,-0.8256 -0.19264,-1.4586 -0.16512,-0.63296 -0.46783,-1.1008 -0.30272,-0.46784 -0.68801,-0.77056 -0.38527,-0.33024 -0.77056,-0.5504 -0.90816,-0.49536 -2.0915,-0.5504 h -9.6045 z"
       style="font-variant-ligatures:none;fill:#a14fb0;stroke-width:0;stroke-miterlimit:2"
       id="path234609" /><path
       stroke-miterlimit="2"
       d="m 299.47,419.3 v 1.1558 h -11.476 v 8.7789 h 9.9347 v 1.2109 l -9.9347,-0.0275 v 8.3936 h 11.476 v 1.1558 h -12.632 v -20.668 z"
       style="font-variant-ligatures:none;fill:#a451b0;stroke-width:0;stroke-miterlimit:2"
       id="path234611" /><path
       stroke-miterlimit="2"
       d="m 311.24,419.3 h 11.091 q 1.4861,0.0826 2.6694,0.688 0.49536,0.24768 0.96321,0.66048 0.49536,0.4128 0.85312,1.0182 0.38527,0.57792 0.60543,1.376 0.24768,0.79808 0.24768,1.8438 0,1.0458 -0.24768,1.8438 -0.24768,0.77056 -0.66047,1.376 -0.4128,0.57792 -0.93569,0.99072 -0.52287,0.38528 -1.0458,0.63296 -1.2659,0.60544 -2.8621,0.688 l 5.0086,9.5494 h -1.2384 l -5.0086,-9.5494 h -8.2835 v 9.5494 h -1.1558 z m 1.1558,9.9622 h 9.9347 q 1.1834,-0.055 2.0915,-0.5504 0.38528,-0.19264 0.77056,-0.49536 0.38527,-0.33024 0.66047,-0.79808 0.30272,-0.46784 0.46785,-1.0733 0.19263,-0.63296 0.19263,-1.4586 0,-0.8256 -0.19263,-1.4586 -0.16513,-0.63296 -0.46785,-1.1008 -0.2752,-0.46784 -0.66047,-0.77056 -0.38528,-0.33024 -0.77056,-0.5504 -0.90816,-0.49536 -2.0915,-0.5504 h -9.9347 z"
       style="font-variant-ligatures:none;fill:#a753b0;stroke-width:0;stroke-miterlimit:2"
       id="path234613" /><path
       stroke-miterlimit="2"
       d="m 339.95,419.3 v 20.668 h -1.1283 V 419.3 Z"
       style="font-variant-ligatures:none;fill:#ab55af;stroke-width:0;stroke-miterlimit:2"
       id="path234615" /><path
       stroke-miterlimit="2"
       d="m 351.66,419.3 11.091,8.7789 11.476,-8.7789 v 20.668 h -1.1558 v -17.971 l -10.32,7.623 -9.9347,-7.623 v 17.971 h -1.1558 z"
       style="font-variant-ligatures:none;fill:#ae56af;stroke-width:0;stroke-miterlimit:2"
       id="path234617" /><path
       stroke-miterlimit="2"
       d="m 398.59,419.3 v 1.1558 h -11.476 v 8.7789 h 9.9347 v 1.2109 l -9.9347,-0.0275 v 8.3936 h 11.476 v 1.1558 h -12.632 v -20.668 z"
       style="font-variant-ligatures:none;fill:#b158af;stroke-width:0;stroke-miterlimit:2"
       id="path234619" /><path
       stroke-miterlimit="2"
       d="m 410.36,439.97 v -20.64 l 16.044,17.475 V 419.33 h 1.2109 v 20.64 l -16.099,-17.695 v 17.695 z"
       style="font-variant-ligatures:none;fill:#b45aae;stroke-width:0;stroke-miterlimit:2"
       id="path234621" /><path
       stroke-miterlimit="2"
       d="m 444.53,439.97 v -19.512 h -7.8157 v -1.1558 h 16.787 v 1.1558 h -7.8157 v 19.512 z"
       style="font-variant-ligatures:none;fill:#b85cae;stroke-width:0;stroke-miterlimit:2"
       id="path234623" /><path
       stroke-miterlimit="2"
       d="m 456.3,439.97 10.072,-20.668 10.072,20.668 h -1.1008 l -2.697,-5.4214 h -12.549 l -2.697,5.4214 z m 4.2656,-6.4672 h 11.586 l -5.7792,-11.861 z"
       style="font-variant-ligatures:none;fill:#bb5eae;stroke-width:0;stroke-miterlimit:2"
       id="path234625" /><path
       stroke-miterlimit="2"
       d="m 484.6,439.97 v -20.668 h 1.1558 v 19.512 h 11.476 v 1.1558 z"
       style="font-variant-ligatures:none;fill:#be60ad;stroke-width:0;stroke-miterlimit:2"
       id="path234627" /><path
       stroke-miterlimit="2"
       d="m 512.59,439.97 v -20.64 l 16.044,17.475 V 419.33 h 1.2109 v 20.64 l -16.099,-17.695 v 17.695 z"
       style="font-variant-ligatures:none;fill:#c262ad;stroke-width:0;stroke-miterlimit:2"
       id="path234629" /><path
       stroke-miterlimit="2"
       d="m 541.62,429.24 11.091,0.0275 v 1.1558 h -9.9347 v 9.5494 h -1.1558 z m 0,-9.9347 h 12.632 v 1.1558 H 541.62 Z"
       style="font-variant-ligatures:none;fill:#c564ac;stroke-width:0;stroke-miterlimit:2"
       id="path234631" /><path
       stroke-miterlimit="2"
       d="m 566.77,439.97 -0.0275,-20.668 h 8.999 v 1.1558 h -7.8157 v 19.512 z"
       style="font-variant-ligatures:none;fill:#c866ac;stroke-width:0;stroke-miterlimit:2"
       id="path234633" /><path
       stroke-miterlimit="2"
       d="m 589.63,439.97 v -20.668 h 1.1558 v 19.512 h 11.476 v 1.1558 z"
       style="font-variant-ligatures:none;fill:#cc68ac;stroke-width:0;stroke-miterlimit:2"
       id="path234635" /><path
       stroke-miterlimit="2"
       d="m 612.6,439.97 10.072,-20.668 10.072,20.668 h -1.1008 l -2.697,-5.4214 h -12.54 l -2.697,5.4214 z m 4.2656,-6.4672 h 11.586 l -5.7792,-11.861 z"
       style="font-variant-ligatures:none;fill:#cf6aab;stroke-width:0;stroke-miterlimit:2"
       id="path234637" /><path
       stroke-miterlimit="2"
       d="m 642.67,439.97 v -20.64 l 16.044,17.475 V 419.33 h 1.2109 v 20.64 l -16.099,-17.695 v 17.695 z"
       style="font-variant-ligatures:none;fill:#d26cab;stroke-width:0;stroke-miterlimit:2"
       id="path234639" /><path
       stroke-miterlimit="2"
       d="m 671.69,439.97 v -20.668 h 6.4122 q 2.1741,-0.055 4.0179,0.8256 1.8714,0.85312 3.2198,2.3392 1.3485,1.4586 2.119,3.385 0.77056,1.9264 0.77056,3.9354 0,1.8989 -0.82561,3.7702 -0.79808,1.8438 -2.2016,3.3299 -1.376,1.4586 -3.2198,2.3392 -1.8438,0.85312 -3.8803,0.74304 z m 1.1558,-1.1558 h 5.2288 q 1.8989,0 3.5226,-0.77056 1.6512,-0.79808 2.8621,-2.064 1.2384,-1.2659 1.9264,-2.8896 0.68799,-1.6237 0.68799,-3.3024 0,-1.8163 -0.68799,-3.495 -0.66048,-1.6787 -1.8714,-2.9722 -1.1834,-1.321 -2.8346,-2.0915 -1.6512,-0.77056 -3.6051,-0.77056 h -5.2288 z"
       style="font-variant-ligatures:none;fill:#d56dab;stroke-width:0;stroke-miterlimit:2"
       id="path234641" /><path
       stroke-miterlimit="2"
       d="m 705.55,429.65 q 0.90816,0.24768 1.6512,0.60544 0.77055,0.33024 1.2934,0.90816 0.5504,0.5504 0.85311,1.4035 0.30272,0.85312 0.30272,2.119 0,1.3485 -0.57792,2.3667 -0.5504,1.0182 -1.4861,1.6787 -0.90817,0.63296 -2.0915,0.9632 -1.1834,0.30272 -2.4493,0.2752 -1.2384,-0.0275 -2.4493,-0.35776 -1.2109,-0.35776 -2.1741,-1.0458 l 0.77056,-0.77056 q 0.8256,0.46784 1.8438,0.71552 1.0182,0.24768 2.0365,0.2752 1.0458,0.0275 2.009,-0.19264 0.99072,-0.22016 1.7613,-0.71552 0.77055,-0.49536 1.2109,-1.2934 0.46784,-0.79808 0.46784,-1.8989 0,-1.4586 -0.63296,-2.2842 -0.60544,-0.8256 -1.5962,-1.2934 -0.9632,-0.49536 -2.2016,-0.77056 -1.2109,-0.30272 -2.4218,-0.688 -0.88064,-0.24768 -1.5686,-0.74304 -0.66048,-0.52288 -1.1283,-1.1834 -0.46784,-0.688 -0.71552,-1.4861 -0.24768,-0.79808 -0.24768,-1.6512 0,-1.3485 0.5504,-2.3392 0.57792,-1.0182 1.4861,-1.6787 0.93568,-0.66048 2.119,-0.9632 1.1834,-0.33024 2.4218,-0.30272 1.2384,0.0275 2.4493,0.38528 1.2109,0.35776 2.1741,1.0182 l -0.77056,0.77056 q -0.8256,-0.46784 -1.8438,-0.71552 -0.99072,-0.2752 -2.0365,-0.30272 -1.0182,-0.0275 -2.009,0.19264 -0.9632,0.22016 -1.7338,0.71552 -0.74304,0.49536 -1.2109,1.2934 -0.44032,0.79808 -0.44032,1.9264 0,1.4861 0.5504,2.3117 0.5504,0.8256 1.431,1.321 0.90816,0.49536 2.0365,0.79808 1.1558,0.2752 2.3667,0.63296 z"
       style="font-variant-ligatures:none;fill:#d96faa;stroke-width:0;stroke-miterlimit:2"
       id="path234643" /><path
       stroke-miterlimit="2"
       d="m 728.89,439.97 q -2.119,0 -3.9904,-0.8256 -1.8714,-0.8256 -3.2749,-2.2291 -1.4035,-1.4035 -2.2291,-3.2749 -0.8256,-1.8714 -0.8256,-3.9904 0,-2.119 0.79808,-3.9904 0.8256,-1.8989 2.2291,-3.3024 1.4035,-1.4035 3.2749,-2.2291 1.8989,-0.8256 4.0179,-0.8256 3.7152,0 6.3571,2.2016 l -0.71552,0.74304 q -1.2384,-0.9632 -2.6144,-1.376 -1.376,-0.4128 -3.0272,-0.4128 -1.9264,0 -3.6051,0.71552 -1.6512,0.71552 -2.8896,1.9539 -1.2384,1.23838 -1.9539,2.9171 -0.71552,1.6787 -0.71552,3.6326 0,1.9264 0.71552,3.6051 0.71552,1.6512 1.9539,2.8896 1.2659,1.2384 2.9171,1.9539 1.6787,0.688 3.5776,0.688 1.5411,0 2.8896,-0.38528 1.3485,-0.38528 2.5594,-1.2659 l 0.79808,0.71552 q -2.6694,2.0915 -6.247,2.0915 z"
       style="font-variant-ligatures:none;fill:#dc71aa;stroke-width:0;stroke-miterlimit:2"
       id="path234645" /><path
       stroke-miterlimit="2"
       d="m 743.59,439.97 10.072,-20.668 10.072,20.668 h -1.1008 l -2.697,-5.4214 h -12.549 l -2.697,5.4214 z m 4.2656,-6.4672 h 11.586 l -5.7792,-11.861 z"
       style="font-variant-ligatures:none;fill:#df73aa;stroke-width:0;stroke-miterlimit:2"
       id="path234647" /><path
       stroke-miterlimit="2"
       d="m 773.65,419.3 h 11.146 q 1.376,0.0826 2.4768,0.688 0.46783,0.24768 0.90815,0.66048 0.46784,0.4128 0.79808,1.0182 0.35777,0.57792 0.57793,1.376 0.22016,0.79808 0.22016,1.8438 0,1.0458 -0.22016,1.8438 -0.22016,0.77056 -0.57793,1.376 -0.33024,0.57792 -0.79808,0.99072 -0.44031,0.38528 -0.90815,0.63296 -1.1008,0.60544 -2.4768,0.688 h -9.9898 v 9.5494 h -1.1558 z m 1.1558,9.9622 h 9.6045 q 1.1834,-0.055 2.0915,-0.5504 0.38528,-0.19264 0.77057,-0.49536 0.38527,-0.33024 0.68799,-0.79808 0.30272,-0.46784 0.46784,-1.0733 0.19264,-0.63296 0.19264,-1.4586 0,-0.8256 -0.19264,-1.4586 -0.16512,-0.63296 -0.46784,-1.1008 -0.30272,-0.46784 -0.68799,-0.77056 -0.38529,-0.33024 -0.77057,-0.5504 -0.90815,-0.49536 -2.0915,-0.5504 h -9.6045 z"
       style="font-variant-ligatures:none;fill:#e375a9;stroke-width:0;stroke-miterlimit:2"
       id="path234649" /><path
       stroke-miterlimit="2"
       d="m 813.59,419.3 v 1.1558 h -11.476 v 8.7789 h 9.9347 v 1.2109 l -9.9347,-0.0275 v 8.3936 h 11.476 v 1.1558 h -12.632 v -20.668 z"
       style="font-variant-ligatures:none;fill:#e677a9;stroke-width:0;stroke-miterlimit:2"
       id="path234651" /><path
       stroke-miterlimit="2"
       d="m 211.12,328.02 34.819,27.562 36.029,-27.562 v 64.886 h -3.6288 v -56.419 l -32.4,23.933 -31.19,-23.933 v 56.419 h -3.6288 z"
       style="font-variant-ligatures:none;fill:#9a4bb1;stroke-width:0;stroke-miterlimit:2"
       id="path234654" /><path
       stroke-miterlimit="2"
       d="m 307.08,359.21 h 35.942 v 3.8016 H 307.08 Z m 0,-31.19 h 39.658 v 3.6288 H 307.08 Z m 0,61.258 h 39.658 v 3.6288 H 307.08 Z"
       style="font-variant-ligatures:none;fill:#a451b0;stroke-width:0;stroke-miterlimit:2"
       id="path234656" /><path
       stroke-miterlimit="2"
       d="m 376.05,392.9 -0.0864,-64.886 h 28.253 v 3.6288 h -24.538 v 61.258 z"
       style="font-variant-ligatures:none;fill:#ad56af;stroke-width:0;stroke-miterlimit:2"
       id="path234658" /><path
       stroke-miterlimit="2"
       d="m 534.73,328.02 q 4.32,0.2592 7.776,2.16 1.4688,0.7776 2.8512,2.0736 1.4688,1.296 2.5056,3.1968 1.1232,1.8144 1.8144,4.32 0.6912,2.5056 0.6912,5.7888 0,3.2832 -0.6912,5.7888 -0.6912,2.4192 -1.8144,4.32 -1.0368,1.8144 -2.5056,3.1104 -1.3824,1.2096 -2.8512,1.9872 -3.456,1.9008 -7.776,2.16 h -31.363 v 29.981 h -3.6288 v -33.61 h 33.782 q 3.7152,-0.1728 6.5664,-1.728 1.2096,-0.6048 2.4192,-1.5552 1.2096,-1.0368 2.16,-2.5056 0.9504,-1.4688 1.4688,-3.3696 0.6048,-1.9872 0.6048,-4.5792 0,-2.592 -0.6048,-4.5792 -0.5184,-1.9872 -1.4688,-3.456 -0.9504,-1.4688 -2.16,-2.4192 -1.2096,-1.0368 -2.4192,-1.728 -2.8512,-1.5552 -6.5664,-1.728 h -33.782 v -3.6288 z"
       style="font-variant-ligatures:none;fill:#c061ad;stroke-width:0;stroke-miterlimit:2"
       id="path234662" /><path
       stroke-miterlimit="2"
       d="m 625.34,345.55 q 0,3.2832 -0.7776,5.7888 -0.7776,2.4192 -2.0736,4.32 -1.296,1.8144 -2.9376,3.1104 -1.6416,1.2096 -3.2832,1.9872 -3.9744,1.9008 -8.9856,2.16 l 15.725,29.981 h -3.888 l -15.725,-29.981 h -29.635 v -3.6288 h 34.819 q 3.7152,-0.1728 6.5664,-1.728 1.2096,-0.6048 2.4192,-1.5552 1.2096,-1.0368 2.0736,-2.5056 0.9504,-1.4688 1.4688,-3.3696 0.6048,-1.9872 0.6048,-4.5792 0,-2.592 -0.6048,-4.5792 -0.5184,-1.9872 -1.4688,-3.456 -0.864,-1.4688 -2.0736,-2.4192 -1.2096,-1.0368 -2.4192,-1.728 -2.8512,-1.5552 -6.5664,-1.728 h -34.819 v -3.6288 h 34.819 q 4.6656,0.2592 8.3808,2.16 1.5552,0.7776 3.024,2.0736 1.5552,1.296 2.6784,3.1968 1.2096,1.8144 1.9008,4.32 0.7776,2.5056 0.7776,5.7888 z"
       style="font-variant-ligatures:none;fill:#ca67ac;stroke-width:0;stroke-miterlimit:2"
       id="path234664" /><path
       stroke-miterlimit="2"
       d="m 648.63,328.02 h 3.5424 v 64.886 H 648.63 Z"
       style="font-variant-ligatures:none;fill:#d36cab;stroke-width:0;stroke-miterlimit:2"
       id="path234666" /><path
       stroke-miterlimit="2"
       d="m 677.26,328.02 34.819,27.562 36.029,-27.562 v 64.886 h -3.6288 v -56.419 l -32.4,23.933 -31.19,-23.933 v 56.419 h -3.6288 z"
       style="font-variant-ligatures:none;fill:#dd72aa;stroke-width:0;stroke-miterlimit:2"
       id="path234668" /><path
       stroke-miterlimit="2"
       d="m 773.23,359.21 h 35.942 v 3.8016 H 773.23 Z m 0,-31.19 h 39.658 v 3.6288 H 773.23 Z m 0,61.258 h 39.658 v 3.6288 H 773.23 Z"
       style="font-variant-ligatures:none;fill:#e677a9;stroke-width:0;stroke-miterlimit:2"
       id="path234670" /><path
       style="fill:#9a4bb1;stroke-width:0.39565"
       d="m 442.55,328.8 c -0.008,-0.008 -4.1935,7.1972 -9.2993,16.012 -5.1058,8.8147 -9.3112,16.076 -9.3456,16.132 l -0.0625,0.10757 h 37.383 l -0.0143,-0.0372 c -0.004,-0.0198 -4.2057,-7.2728 -9.3294,-16.118 -5.1236,-8.8451 -9.3215,-16.089 -9.3294,-16.097 z m -18.829,32.282 c -0.009,-0.002 -4.2172,7.2475 -9.3504,16.111 -5.1332,8.8637 -9.3298,16.12 -9.325,16.124 0.004,0.004 8.4127,0.005 18.685,0.002 l 18.677,-0.006 -9.3349,-16.113 c -5.1339,-8.8625 -9.3425,-16.115 -9.352,-16.119 z m 37.52,-0.006 c -0.008,-4e-4 -4.216,7.2526 -9.352,16.118 l -9.3381,16.119 18.677,0.005 c 10.273,0.003 18.681,0.002 18.685,-0.002 0.004,-0.004 -4.1923,-7.2598 -9.325,-16.124 -5.1331,-8.8637 -9.3393,-16.116 -9.3468,-16.117 z"
       id="icon" /></g></svg>