<?xml version="1.0" encoding="UTF-8" standalone="no"?>
<svg
   xmlns:dc="http://purl.org/dc/elements/1.1/"
   xmlns:cc="http://creativecommons.org/ns#"
   xmlns:rdf="http://www.w3.org/1999/02/22-rdf-syntax-ns#"
   xmlns:svg="http://www.w3.org/2000/svg"
   xmlns="http://www.w3.org/2000/svg"
   id="svg4"
   xml:space="preserve"
   viewBox="0 0 1024 768"
   y="0px"
   x="0px"
   version="1.1"><metadata
     id="metadata10"><rdf:RDF><cc:Work
         rdf:about=""><dc:format>image/svg+xml</dc:format><dc:type
           rdf:resource="http://purl.org/dc/dcmitype/StillImage" /></cc:Work></rdf:RDF></metadata><defs
     id="defs8" /><path
     id="path2"
     d="m211.12 328.02v64.88h3.63v-56.42l31.19 23.94 32.4-23.94v56.42h3.62v-64.88l-36.02 27.56-34.82-27.56zm95.96 0v3.62h39.66v-3.62h-39.66zm68.88 0l0.09 64.88h3.63v-61.26h24.54v-3.62h-28.26zm123.78 0v3.62h33.78c2.48 0.12 4.67 0.69 6.57 1.73 0.8 0.46 1.61 1.04 2.42 1.73 0.8 0.63 1.52 1.44 2.16 2.42 0.63 0.98 1.12 2.13 1.46 3.45 0.41 1.33 0.61 2.86 0.61 4.58 0 1.73-0.2 3.26-0.61 4.58-0.34 1.27-0.83 2.39-1.46 3.37-0.64 0.98-1.36 1.82-2.16 2.51-0.81 0.63-1.62 1.15-2.42 1.55-1.9 1.04-4.09 1.62-6.57 1.73h-33.78v33.61h3.63v-29.98h31.36c2.88-0.17 5.47-0.89 7.78-2.16 0.98-0.52 1.93-1.18 2.85-1.99 0.98-0.86 1.81-1.9 2.5-3.11 0.75-1.26 1.36-2.7 1.82-4.32 0.46-1.67 0.69-3.6 0.69-5.79 0-2.18-0.23-4.11-0.69-5.78s-1.07-3.12-1.82-4.32c-0.69-1.27-1.52-2.34-2.5-3.2-0.92-0.87-1.87-1.56-2.85-2.07-2.31-1.27-4.9-1.99-7.78-2.16h-34.99zm74.02 0v3.62h34.82c2.48 0.12 4.67 0.69 6.57 1.73 0.8 0.46 1.61 1.04 2.42 1.73 0.8 0.63 1.5 1.44 2.07 2.42 0.64 0.98 1.13 2.13 1.47 3.45 0.4 1.33 0.6 2.86 0.6 4.58 0 1.73-0.2 3.26-0.6 4.58-0.34 1.27-0.83 2.39-1.47 3.37-0.57 0.98-1.27 1.82-2.07 2.51-0.81 0.63-1.62 1.15-2.42 1.55-1.9 1.04-4.09 1.62-6.57 1.73h-34.82v3.63h29.64l15.72 29.98h3.89l-15.72-29.98c3.34-0.17 6.33-0.89 8.98-2.16 1.1-0.52 2.19-1.18 3.28-1.99 1.1-0.86 2.08-1.9 2.94-3.11 0.87-1.26 1.56-2.7 2.08-4.32 0.51-1.67 0.77-3.6 0.77-5.79 0-2.18-0.26-4.11-0.77-5.78-0.46-1.67-1.1-3.12-1.9-4.32-0.75-1.27-1.64-2.34-2.68-3.2-0.98-0.87-1.99-1.56-3.03-2.07-2.47-1.27-5.27-1.99-8.38-2.16h-34.82zm74.87 0v64.88h3.54v-64.88h-3.54zm28.63 0v64.88h3.63v-56.42l31.19 23.94 32.4-23.94v56.42h3.63v-64.88l-36.03 27.56-34.82-27.56zm95.97 0v3.62h39.65v-3.62h-39.65zm-330.68 0.78h-0.01c0-0.01-4.19 7.19-9.29 16.01-5.11 8.81-9.32 16.08-9.35 16.13l-0.06 0.11h37.38l-0.01-0.04c-0.01-0.02-4.21-7.27-9.33-16.12-5.13-8.84-9.32-16.09-9.33-16.09zm-135.47 30.41v3.8h35.94v-3.8h-35.94zm466.15 0v3.8h35.94v-3.8h-35.94zm-311.99 1.86c-0.01 0-4.22 7.26-9.36 16.12l-9.34 16.12 18.68 0.01c10.28 0 18.68 0 18.69-0.01 0 0-4.19-7.26-9.33-16.12-5.13-8.86-9.34-16.12-9.34-16.12zm-37.52 0.01c-0.01 0-4.22 7.25-9.35 16.11-5.14 8.87-9.33 16.12-9.33 16.12 0.01 0.01 8.41 0.01 18.68 0.01l18.68-0.01-9.33-16.11c-5.14-8.86-9.34-16.11-9.35-16.12zm-116.64 28.19v3.63h39.66v-3.63h-39.66zm466.15 0v3.63h39.65v-3.63h-39.65zm-562.82 30.03v20.67h12.63v-1.15h-11.48v-8.4l9.94 0.03v-1.21h-9.94v-8.78h11.48v-1.16h-12.63zm22.42 0l7.65 10.35-7.65 10.32h1.18l7.24-9.6 7.29 9.6h1.19l-7.63-10.32 7.65-10.35h-1.21l-7.29 9.64-7.24-9.64h-1.18zm26.71 0v20.67h1.15v-9.55h9.99c0.92-0.05 1.74-0.28 2.48-0.69 0.31-0.16 0.61-0.37 0.91-0.63 0.31-0.27 0.58-0.6 0.8-0.99 0.23-0.4 0.43-0.86 0.57-1.38 0.15-0.53 0.22-1.14 0.22-1.84s-0.07-1.31-0.22-1.84c-0.14-0.54-0.34-0.99-0.57-1.38-0.22-0.4-0.49-0.74-0.8-1.02-0.3-0.27-0.6-0.49-0.91-0.66-0.74-0.4-1.56-0.63-2.48-0.69h-1.15-9.99zm27.3 0v20.67h12.63v-1.15h-11.47v-8.4l9.93 0.03v-1.21h-9.93v-8.78h11.47v-1.16h-12.63zm24.4 0v20.67h1.16v-9.55h8.28l5.01 9.55h1.24l-5.01-9.55c1.07-0.05 2.02-0.28 2.86-0.69 0.35-0.16 0.7-0.37 1.05-0.63 0.35-0.27 0.66-0.6 0.94-0.99 0.27-0.4 0.49-0.86 0.66-1.38 0.16-0.53 0.24-1.14 0.24-1.84s-0.08-1.31-0.24-1.84c-0.15-0.54-0.35-0.99-0.61-1.38-0.24-0.4-0.52-0.74-0.85-1.02-0.32-0.27-0.64-0.49-0.97-0.66-0.78-0.4-1.68-0.63-2.67-0.69h-11.09zm27.58 0v20.67h1.13v-20.67h-1.13zm12.84 0v20.67h1.16v-17.97l9.93 7.62 10.32-7.62v17.97h1.16v-20.67l-11.48 8.78-11.09-8.78zm34.3 0v20.67h12.63v-1.15h-11.48v-8.4l9.94 0.03v-1.21h-9.94v-8.78h11.48v-1.16h-12.63zm50.75 0v1.16h7.82v19.51h1.16v-19.51h7.81v-1.16h-16.79zm29.66 0l-10.07 20.67h1.1l2.7-5.42h12.54l2.7 5.42h1.1l-10.07-20.67zm18.23 0v20.67h12.63v-1.15h-11.47v-19.52h-1.16zm57.02 0v1.16h12.63v-1.16h-12.63zm25.13 0l0.03 20.67h1.15v-19.51h7.82v-1.16h-9zm22.88 0v20.67h12.63v-1.15h-11.48v-19.52h-1.15zm33.05 0l-10.08 20.67h1.11l2.69-5.42h12.55l2.7 5.42h1.1l-10.07-20.67zm49.01 0v20.67h6.41c1.36 0.08 2.66-0.17 3.88-0.74 1.23-0.59 2.31-1.37 3.22-2.34 0.94-0.99 1.67-2.1 2.2-3.33 0.55-1.25 0.83-2.51 0.83-3.77 0-1.34-0.26-2.65-0.77-3.93-0.51-1.29-1.22-2.42-2.12-3.39-0.9-0.99-1.97-1.77-3.22-2.34-1.23-0.59-2.57-0.86-4.02-0.83h-6.41zm32.89 0c-0.82-0.01-1.63 0.09-2.42 0.31-0.79 0.2-1.49 0.52-2.12 0.96-0.6 0.44-1.1 1-1.48 1.68-0.37 0.66-0.55 1.44-0.55 2.34 0 0.57 0.08 1.12 0.24 1.65 0.17 0.53 0.41 1.03 0.72 1.49 0.31 0.44 0.69 0.83 1.13 1.18 0.46 0.33 0.98 0.58 1.57 0.74 0.8 0.26 1.61 0.49 2.42 0.69 0.82 0.18 1.56 0.44 2.2 0.77 0.66 0.31 1.19 0.74 1.6 1.29 0.42 0.55 0.63 1.32 0.63 2.29 0 0.73-0.16 1.37-0.47 1.9-0.29 0.53-0.7 0.96-1.21 1.29s-1.1 0.57-1.76 0.72c-0.64 0.14-1.31 0.21-2.01 0.19-0.68-0.02-1.36-0.11-2.04-0.28-0.68-0.16-1.29-0.4-1.84-0.71l-0.77 0.77c0.64 0.46 1.37 0.81 2.17 1.05 0.81 0.22 1.63 0.33 2.45 0.35 0.85 0.02 1.66-0.07 2.45-0.27 0.79-0.22 1.49-0.54 2.09-0.97 0.63-0.44 1.12-1 1.49-1.68 0.39-0.67 0.58-1.46 0.58-2.36 0-0.85-0.1-1.55-0.3-2.12-0.21-0.57-0.49-1.04-0.86-1.4-0.35-0.39-0.78-0.69-1.29-0.91-0.5-0.24-1.05-0.44-1.65-0.61-0.81-0.24-1.6-0.45-2.37-0.63-0.75-0.2-1.43-0.47-2.04-0.8-0.58-0.33-1.06-0.77-1.43-1.32-0.36-0.55-0.55-1.32-0.55-2.31 0-0.75 0.15-1.4 0.44-1.93 0.32-0.53 0.72-0.96 1.21-1.29 0.52-0.33 1.09-0.57 1.74-0.72 0.66-0.14 1.33-0.21 2.01-0.19 0.69 0.02 1.37 0.12 2.03 0.3 0.68 0.17 1.3 0.41 1.85 0.72l0.77-0.77c-0.65-0.44-1.37-0.78-2.18-1.02-0.8-0.24-1.62-0.37-2.45-0.39zm24.31 0c-1.41 0-2.75 0.28-4.02 0.83-1.24 0.55-2.34 1.29-3.27 2.23-0.94 0.94-1.68 2.04-2.23 3.3-0.53 1.25-0.8 2.58-0.8 3.99 0 1.42 0.28 2.75 0.83 3.99 0.55 1.25 1.29 2.34 2.22 3.28 0.94 0.93 2.03 1.68 3.28 2.23s2.58 0.82 3.99 0.82c2.39 0 4.47-0.69 6.25-2.09l-0.8-0.71c-0.81 0.58-1.66 1-2.56 1.26s-1.86 0.39-2.89 0.39c-1.27 0-2.46-0.23-3.58-0.69-1.1-0.48-2.07-1.13-2.91-1.96-0.83-0.82-1.48-1.78-1.96-2.88-0.48-1.12-0.71-2.33-0.71-3.61 0-1.3 0.23-2.51 0.71-3.63s1.13-2.09 1.96-2.92c0.82-0.82 1.78-1.48 2.89-1.95 1.11-0.48 2.32-0.72 3.6-0.72 1.1 0 2.11 0.14 3.03 0.41 0.92 0.28 1.79 0.74 2.61 1.38l0.72-0.74c-1.76-1.47-3.88-2.21-6.36-2.21zm24.77 0l-10.07 20.67h1.1l2.7-5.42h12.55l2.7 5.42h1.1l-10.08-20.67zm19.99 0v20.67h1.16v-9.55h9.99c0.92-0.05 1.74-0.28 2.48-0.69 0.31-0.16 0.61-0.37 0.91-0.63 0.31-0.27 0.57-0.6 0.79-0.99 0.24-0.4 0.43-0.86 0.58-1.38 0.15-0.53 0.22-1.14 0.22-1.84s-0.07-1.31-0.22-1.84c-0.15-0.54-0.34-0.99-0.58-1.38-0.22-0.4-0.48-0.74-0.79-1.02-0.3-0.27-0.6-0.49-0.91-0.66-0.74-0.4-1.56-0.63-2.48-0.69h-1.16-9.99zm27.31 0v20.67h12.63v-1.15h-11.47v-8.4l9.93 0.03v-1.21h-9.93v-8.78h11.47v-1.16h-12.63zm-390.6 0.03v20.64h1.15v-17.69l16.1 17.69v-20.64h-1.21v17.48l-16.04-17.48zm102.23 0v20.64h1.16v-17.69l16.1 17.69v-20.64h-1.22v17.48l-16.04-17.48zm130.08 0v20.64h1.15v-17.69l16.1 17.69v-20.64h-1.21v17.48l-16.04-17.48zm-381.98 1.13h9.61c0.79 0.04 1.48 0.22 2.09 0.55 0.26 0.15 0.51 0.33 0.77 0.55 0.26 0.2 0.48 0.46 0.69 0.77 0.2 0.31 0.35 0.68 0.46 1.1 0.13 0.43 0.2 0.91 0.2 1.46s-0.07 1.04-0.2 1.46c-0.11 0.4-0.26 0.76-0.46 1.07-0.21 0.32-0.43 0.58-0.69 0.8-0.26 0.2-0.51 0.37-0.77 0.5-0.61 0.33-1.3 0.51-2.09 0.55h-9.61v-8.81zm51.71 0h9.93c0.79 0.04 1.49 0.22 2.1 0.55 0.25 0.15 0.51 0.33 0.77 0.55 0.25 0.2 0.47 0.46 0.66 0.77 0.2 0.31 0.35 0.68 0.46 1.1 0.13 0.43 0.2 0.91 0.2 1.46s-0.07 1.04-0.2 1.46c-0.11 0.4-0.26 0.76-0.46 1.07-0.19 0.32-0.41 0.58-0.66 0.8-0.26 0.2-0.52 0.37-0.77 0.5-0.61 0.33-1.31 0.51-2.1 0.55h-9.93v-8.81zm360.45 0h5.23c1.3 0 2.5 0.26 3.6 0.77s2.05 1.21 2.84 2.09c0.8 0.86 1.43 1.86 1.87 2.97 0.46 1.12 0.68 2.29 0.68 3.5 0 1.12-0.22 2.22-0.68 3.3s-1.1 2.05-1.93 2.89c-0.81 0.85-1.76 1.53-2.86 2.06-1.08 0.52-2.26 0.78-3.52 0.78h-5.23v-18.36zm101.96 0h9.61c0.78 0.04 1.48 0.22 2.09 0.55 0.25 0.15 0.51 0.33 0.77 0.55 0.25 0.2 0.48 0.46 0.68 0.77 0.21 0.31 0.36 0.68 0.47 1.1 0.13 0.43 0.19 0.91 0.19 1.46s-0.06 1.04-0.19 1.46c-0.11 0.4-0.26 0.76-0.47 1.07-0.2 0.32-0.43 0.58-0.68 0.8-0.26 0.2-0.52 0.37-0.77 0.5-0.61 0.33-1.31 0.51-2.09 0.55h-9.61v-8.81zm-308.44 1.18l5.78 11.87h-11.59l5.81-11.87zm156.31 0l5.78 11.87h-11.59l5.81-11.87zm130.98 0l5.78 11.87h-11.58l5.8-11.87zm-212.04 7.6v10.73h1.15v-9.55h9.94v-1.15l-11.09-0.03z"
     fill="#ffffff" /></svg>